<svg xmlns="http://www.w3.org/2000/svg" viewBox="0 0 1440 320"><path fill="#0098ff" fill-opacity="1" d="M0,320L26.7,309.3C53.3,299,107,277,160,277.3C213.3,277,267,299,320,304C373.3,309,427,299,480,282.7C533.3,267,587,245,640,202.7C693.3,160,747,96,800,101.3C853.3,107,907,181,960,176C1013.3,171,1067,85,1120,64C1173.3,43,1227,85,1280,96C1333.3,107,1387,85,1413,74.7L1440,64L1440,320L1413.3,320C1386.7,320,1333,320,1280,320C1226.7,320,1173,320,1120,320C1066.7,320,1013,320,960,320C906.7,320,853,320,800,320C746.7,320,693,320,640,320C586.7,320,533,320,480,320C426.7,320,373,320,320,320C266.7,320,213,320,160,320C106.7,320,53,320,27,320L0,320Z"></path></svg>