<svg xmlns="http://www.w3.org/2000/svg" viewBox="0 0 1440 320"><path fill="#069698" fill-opacity="1" d="M0,0L30,37.3C60,75,120,149,180,154.7C240,160,300,96,360,101.3C420,107,480,181,540,202.7C600,224,660,192,720,192C780,192,840,224,900,234.7C960,245,1020,235,1080,197.3C1140,160,1200,96,1260,101.3C1320,107,1380,181,1410,218.7L1440,256L1440,0L1410,0C1380,0,1320,0,1260,0C1200,0,1140,0,1080,0C1020,0,960,0,900,0C840,0,780,0,720,0C660,0,600,0,540,0C480,0,420,0,360,0C300,0,240,0,180,0C120,0,60,0,30,0L0,0Z"></path></svg>